<svg width="308" height="299" viewBox="0 0 308 299" fill="none" xmlns="http://www.w3.org/2000/svg">
<g clip-path="url(#clip0_1028_37)">
<path fill-rule="evenodd" clip-rule="evenodd" d="M158.401 0C168.638 0.0513526 205.247 0.439683 242.647 26.0634C285.707 55.5669 311.493 106.17 307.308 160.923C301.195 240.938 232.081 302.987 150.251 298.559C68.3241 294.126 4.16368 223.603 9.43568 139.862C14.2367 63.6098 76.3582 2.82986 153.111 0.0926756C155.894 -0.00668718 158.234 0.000911585 158.401 0ZM158.398 9.85241C147.495 9.87003 114.159 10.699 80.0228 33.8848C39.8766 61.1528 15.4825 108.188 19.059 159.302C24.3462 234.861 89.6917 293.546 166.924 288.875C243.087 284.269 302.45 218.604 297.749 140.919C293.331 67.9781 232.82 10.0675 158.854 9.85302L158.404 9.85241H158.398Z" fill="#A9D09A"/>
<path fill-rule="evenodd" clip-rule="evenodd" d="M173.873 83.8732C173.245 84.3652 172.638 84.8921 171.986 85.3512C171.68 85.5677 170.077 86.6973 167.912 87.6461C164.776 89.0207 161.863 89.3755 161.322 89.4395C159.909 89.6126 151.748 90.6064 144.154 84.7977C143.53 84.3207 142.927 83.8137 142.354 83.2765C141.267 82.253 141.287 82.2342 140.309 81.1046C140.059 80.8179 138.743 79.3034 137.57 77.2248C132.879 68.893 135.001 60.9516 135.368 59.5774C135.51 59.0478 136.267 56.214 138.066 53.2987C139.305 51.29 140.649 49.8581 140.903 49.5878C141.168 49.3063 142.552 47.8325 144.522 46.4429C144.826 46.2287 146.428 45.0988 148.593 44.1503C151.73 42.7759 154.643 42.4209 155.186 42.3546C156.599 42.1815 164.76 41.1876 172.354 46.9964C172.978 47.4736 173.579 47.9826 174.152 48.5199C175.241 49.541 175.219 49.5621 176.199 50.6894C176.448 50.9761 177.765 52.4907 178.935 54.5715C183.629 62.9011 181.505 70.8447 181.138 72.2189C180.998 72.7462 180.239 75.5824 178.442 78.4954C177.201 80.5063 175.859 81.936 175.603 82.2085C175.601 82.2108 173.876 83.8711 173.873 83.8732Z" fill="#A9D09A"/>
<path fill-rule="evenodd" clip-rule="evenodd" d="M192.668 245.059C192.406 245.727 191.276 248.376 188.076 249.527C187.654 249.677 187.221 249.792 186.781 249.869C185.934 250.016 185.93 249.985 185.068 249.985C177.243 249.967 167.858 249.31 139.967 249.065C139.513 249.058 139.054 249.075 138.6 249.051C138.16 249.03 137.72 249.005 137.287 248.928C136.782 248.837 133.822 248.302 132.018 245.276C130.211 242.25 131.146 239.391 131.306 238.902C131.935 236.977 133.196 235.816 133.429 235.606C133.691 235.364 134.411 234.703 137.167 233.199C143.178 229.921 147.553 229.151 150.396 225.499C152.342 223.004 154.44 218.197 155.687 207.96C155.611 198.343 155.538 185.409 155.48 168.011L155.407 126.099C149.865 126.193 143.393 126.289 142.891 126.236C142.644 126.21 142.4 126.147 142.16 126.084C141.745 125.973 141.324 125.871 140.924 125.714C140.454 125.53 137.716 124.459 136.502 121.239C136.324 120.769 135.287 118.02 136.862 114.96C137.058 114.577 137.287 114.209 137.545 113.863C137.873 113.43 139.789 110.869 143.564 110.761C143.927 110.751 144.244 110.75 144.524 110.755C151.24 110.708 162.952 110.472 162.985 110.472C163.396 110.479 163.807 110.489 164.214 110.546C164.691 110.613 167.432 110.999 169.363 113.613C169.538 113.849 170.483 115.127 170.781 116.986C170.847 117.391 170.872 117.802 170.88 118.212C170.88 118.218 170.879 159.777 171.09 195.387C171.09 195.439 171.112 199.532 171.156 205.092C171.338 205.844 171.301 205.903 171.37 206.774C172.592 222.318 178.079 227.594 184.13 231.953C185.916 233.234 189.017 235.284 189.705 235.76C190.236 236.11 190.672 236.494 191.028 236.862C191.119 236.956 191.327 237.173 191.585 237.506C191.945 237.974 192.156 238.352 192.236 238.499C192.486 238.954 193.963 241.63 192.701 244.975C192.69 245.003 192.679 245.031 192.668 245.059Z" fill="#A9D09A"/>
<path fill-rule="evenodd" clip-rule="evenodd" d="M149.401 0C159.638 0.0513526 196.247 0.439683 233.647 26.0634C276.707 55.5669 302.493 106.17 298.308 160.923C292.195 240.938 223.081 302.987 141.251 298.559C59.3241 294.126 -4.83632 223.603 0.435684 139.862C5.2367 63.6098 67.3582 2.82986 144.111 0.0926756C146.894 -0.00668718 149.234 0.000911585 149.401 0ZM149.398 9.85241C138.495 9.87003 105.159 10.699 71.0228 33.8848C30.8766 61.1528 6.48255 108.188 10.059 159.302C15.3462 234.861 80.6917 293.546 157.924 288.875C234.087 284.269 293.45 218.604 288.749 140.919C284.331 67.9781 223.82 10.0675 149.854 9.85302L149.404 9.85241H149.398Z" fill="#010101"/>
<path fill-rule="evenodd" clip-rule="evenodd" d="M164.873 83.8732C164.245 84.3652 163.638 84.8921 162.986 85.3512C162.68 85.5677 161.077 86.6973 158.912 87.6461C155.776 89.0207 152.863 89.3755 152.322 89.4395C150.909 89.6126 142.748 90.6064 135.154 84.7977C134.53 84.3207 133.927 83.8137 133.354 83.2765C132.267 82.253 132.287 82.2342 131.309 81.1046C131.059 80.8179 129.743 79.3034 128.57 77.2248C123.879 68.893 126.001 60.9516 126.368 59.5774C126.51 59.0478 127.267 56.214 129.066 53.2987C130.305 51.29 131.649 49.8581 131.903 49.5878C132.168 49.3063 133.552 47.8325 135.522 46.4429C135.826 46.2287 137.428 45.0988 139.593 44.1503C142.73 42.7759 145.643 42.4209 146.186 42.3546C147.599 42.1815 155.76 41.1876 163.354 46.9964C163.978 47.4736 164.579 47.9826 165.152 48.5199C166.241 49.541 166.219 49.5621 167.199 50.6894C167.448 50.9761 168.765 52.4907 169.936 54.5715C174.629 62.9011 172.505 70.8447 172.138 72.2189C171.998 72.7462 171.239 75.5824 169.442 78.4954C168.201 80.5063 166.859 81.936 166.603 82.2085C166.601 82.2108 164.876 83.8711 164.873 83.8732Z" fill="#010101"/>
<path fill-rule="evenodd" clip-rule="evenodd" d="M183.668 245.059C183.406 245.727 182.276 248.376 179.076 249.527C178.654 249.677 178.221 249.792 177.781 249.869C176.934 250.016 176.93 249.985 176.068 249.985C168.243 249.967 158.858 249.31 130.967 249.065C130.513 249.058 130.054 249.075 129.6 249.051C129.16 249.03 128.72 249.005 128.287 248.928C127.782 248.837 124.822 248.302 123.018 245.276C121.211 242.25 122.146 239.391 122.306 238.902C122.935 236.977 124.196 235.816 124.429 235.606C124.691 235.364 125.411 234.703 128.167 233.199C134.178 229.921 138.553 229.151 141.396 225.499C143.342 223.004 145.44 218.197 146.687 207.96C146.611 198.343 146.538 185.409 146.48 168.011L146.407 126.099C140.865 126.193 134.393 126.289 133.891 126.236C133.644 126.21 133.4 126.147 133.16 126.084C132.745 125.973 132.324 125.871 131.924 125.714C131.454 125.53 128.716 124.459 127.502 121.239C127.324 120.769 126.287 118.02 127.862 114.96C128.058 114.577 128.287 114.209 128.545 113.863C128.873 113.43 130.789 110.869 134.564 110.761C134.927 110.751 135.244 110.75 135.524 110.755C142.24 110.708 153.952 110.472 153.985 110.472C154.396 110.479 154.807 110.489 155.214 110.546C155.691 110.613 158.432 110.999 160.363 113.613C160.538 113.849 161.483 115.127 161.781 116.986C161.847 117.391 161.872 117.802 161.88 118.212C161.88 118.218 161.879 159.777 162.09 195.387C162.09 195.439 162.112 199.532 162.156 205.092C162.338 205.844 162.301 205.903 162.37 206.774C163.592 222.318 169.079 227.594 175.13 231.953C176.916 233.234 180.017 235.284 180.705 235.76C181.236 236.11 181.672 236.494 182.028 236.862C182.119 236.956 182.327 237.173 182.585 237.506C182.945 237.974 183.156 238.352 183.236 238.499C183.486 238.954 184.963 241.63 183.701 244.975C183.69 245.003 183.679 245.031 183.668 245.059Z" fill="#010101"/>
</g>
<defs>
<clipPath id="clip0_1028_37">
<rect width="299" height="299" fill="white"/>
</clipPath>
</defs>
</svg>
