<svg width="190" height="190" viewBox="0 0 190 190" fill="none" xmlns="http://www.w3.org/2000/svg">
<circle cx="95" cy="95" r="90.5" transform="rotate(90 95 95)" stroke="#4F4F4F" stroke-width="9"/>
<circle cx="95.5" cy="94.5" r="78" transform="rotate(90 95.5 94.5)" stroke="#4F4F4F" stroke-width="9"/>
<path d="M29.7574 90.7573C27.4142 93.1005 27.4142 96.8995 29.7574 99.2426L67.9411 137.426C70.2843 139.77 74.0833 139.77 76.4264 137.426C78.7696 135.083 78.7696 131.284 76.4264 128.941L42.4853 95L76.4264 61.0589C78.7696 58.7157 78.7696 54.9167 76.4264 52.5736C74.0833 50.2304 70.2843 50.2304 67.9411 52.5736L29.7574 90.7573ZM160 89L34 89L34 101L160 101L160 89Z" fill="#4F4F4F"/>
</svg>
